<svg width="24" height="24" viewBox="0 0 24 24" fill="none" xmlns="http://www.w3.org/2000/svg"><path fill-rule="evenodd" clip-rule="evenodd" d="M18.998 10.454A5.454 5.454 0 0013.544 5V3a7.454 7.454 0 017.454 7.454h-2zm2 5.104v7.491l-.977.024-.024-1 .024 1h-.033a6.712 6.712 0 01-.342-.004 15.805 15.805 0 01-.962-.058 20.796 20.796 0 01-3.261-.567c-2.624-.67-5.994-2.066-8.895-4.968-2.902-2.901-4.298-6.273-4.97-8.897a20.843 20.843 0 01-.57-3.263 15.788 15.788 0 01-.063-1.23v-.107c0-.001 0-.002 1 .022l-1-.024.024-.976H8.44l.237.665 1.78 5.008.193.543-.374.44-1.338 1.572c.02.033.043.067.066.102.292.444.807 1.124 1.676 1.993.869.869 1.548 1.383 1.99 1.672.034.023.067.045.1.065l1.574-1.338.44-.373.542.193 5.006 1.779.665.236zm-8.1.706l-.348.938-.003-.001-.004-.002-.009-.003-.023-.01a4.023 4.023 0 01-.266-.122 7.067 7.067 0 01-.673-.395c-.564-.37-1.348-.973-2.306-1.931-.958-.958-1.562-1.744-1.933-2.308a7.117 7.117 0 01-.397-.675 3.983 3.983 0 01-.123-.266l-.01-.023-.003-.009-.001-.004v-.001l-.001-.001.936-.35-.937.349-.205-.55.38-.448L8.38 8.8 7.03 5H2.97l.012.135c.065.726.208 1.754.513 2.947.613 2.39 1.871 5.403 4.448 7.98 2.576 2.577 5.588 3.834 7.976 4.445a18.804 18.804 0 003.08.523v-4.06L15.2 15.62l-1.655 1.406-.445.379-.549-.203.347-.938zm.646-7.39c.873 0 1.582.707 1.582 1.58h2a3.582 3.582 0 00-3.582-3.58v2z" fill="#fff"/></svg>