<svg width="46" height="22" viewBox="0 0 46 22" fill="none" xmlns="http://www.w3.org/2000/svg"><path fill-rule="evenodd" clip-rule="evenodd" d="M36.745 22c-5.538 0-8.767-3.025-8.767-7.028h3.998c0 1.865 1.847 3.362 4.769 3.362 3.073 0 4.304-1.193 4.304-2.75 0-1.253-.77-2.272-3.539-2.75l-3.69-.612c-3.723-.61-5.383-2.75-5.383-5.806C28.437 2.87 31.36 0 36.434 0c5.538 0 8.305 3.025 8.305 7.028H40.74c0-1.834-1.502-3.362-4.305-3.362-2.802 0-3.998 1.193-3.998 2.75 0 1.222.615 2.047 2.922 2.446l3.384.61c4.338.765 6.306 2.566 6.306 6.112 0 3.666-2.767 6.416-8.305 6.416zm-12.459-.306h-4V.306h4v21.388zM0 14.367v7.327h3.998v-7.327h1.239l6.913 7.327h5.077l-6.916-7.327c3.382-.155 6.299-2.752 6.299-6.873C16.61 3.216 13.657.32 9.843.32H0v3.826h9.69c1.537 0 2.922 1.318 2.922 3.303 0 1.812-1.373 3.092-2.922 3.092H0v3.826z" fill="#fff"/></svg>