<svg width="277" height="38" viewBox="0 0 277 38" fill="none" xmlns="http://www.w3.org/2000/svg"><path fill-rule="evenodd" clip-rule="evenodd" d="M63.358 37.934c-9.55 0-15.116-5.216-15.116-12.118h6.894c0 3.216 3.183 5.797 8.222 5.797 5.298 0 7.422-2.057 7.422-4.742 0-2.16-1.328-3.917-6.103-4.741l-6.362-1.056c-6.42-1.051-9.281-4.742-9.281-10.011C49.034 4.948 54.072 0 62.822 0c9.55 0 14.32 5.216 14.32 12.118h-6.894c0-3.162-2.59-5.797-7.422-5.797s-6.894 2.057-6.894 4.742c0 2.107 1.06 3.53 5.039 4.218l5.834 1.051c7.48 1.32 10.873 4.424 10.873 10.54 0 6.32-4.77 11.062-14.32 11.062zm-21.482-.528h-6.898V.528h6.898v36.878zM0 24.773v12.633h6.894V24.773H9.03l11.92 12.633h8.754L17.779 24.772c5.83-.267 10.861-4.744 10.861-11.85 0-7.376-5.092-12.37-11.669-12.37H0V7.15h16.707c2.652 0 5.04 2.272 5.04 5.694 0 3.125-2.368 5.331-5.04 5.331H0v6.597z" fill="#306AFF"/><path d="M121.721 23.222v-.25h-9.236v-4.778h15.597v19.028h-4.807l-.5-4.003-.028-.219h-.608l-.075.098c-.665.87-1.54 1.644-2.576 2.317l-.001.001c-1.815 1.193-4.354 2.334-8.044 2.334-9.828 0-17.694-7.743-17.694-18.75S101.615.25 111.443.25c9.655 0 14.945 7.021 16.312 12.694h-6.652c-1.624-3.427-4.637-6.597-9.66-6.597-3.232 0-6.071 1.227-8.1 3.432-2.028 2.204-3.233 5.369-3.233 9.221 0 3.852 1.205 7.017 3.233 9.22 2.029 2.206 4.868 3.433 8.1 3.433 3.505 0 6.074-1.417 7.766-3.143 1.68-1.714 2.512-3.753 2.512-5.024v-.264zm31.216 1.755l11.48 12.245h-8.023l-11.801-12.587-.074-.08h-2.469v12.667h-6.361V.778h16.639c6.396 0 11.361 4.891 11.361 12.153 0 6.988-4.906 11.367-10.581 11.625l-.542.024.371.397zm-10.887-6.505v.25h10.014c2.793 0 5.264-2.503 5.264-5.791 0-3.545-2.464-6.056-5.264-6.056H142.05v11.597zm113.124 6.611h-.25v12.14h-6.361V.777h16.375c3.397 0 6.231 1.178 8.217 3.273 1.987 2.096 3.144 5.131 3.144 8.88 0 3.748-1.157 6.783-3.144 8.879-1.986 2.095-4.82 3.273-8.217 3.273h-9.764zm-.25-6.347v.25h9.75c1.539 0 2.864-.537 3.801-1.58.936-1.04 1.463-2.557 1.463-4.475 0-1.919-.527-3.435-1.463-4.476-.937-1.042-2.262-1.58-3.801-1.58h-9.75v11.861zm-79.77.264c0 3.852 1.204 7.017 3.232 9.22 2.029 2.206 4.868 3.433 8.101 3.433 3.232 0 6.071-1.227 8.1-3.432 2.029-2.204 3.233-5.369 3.233-9.221 0-3.852-1.204-7.017-3.233-9.22-2.029-2.206-4.868-3.433-8.1-3.433-3.233 0-6.072 1.227-8.101 3.432-2.028 2.204-3.232 5.369-3.232 9.221zm-6.362 0c0-11.007 7.866-18.75 17.695-18.75 9.828 0 17.694 7.743 17.694 18.75s-7.866 18.75-17.694 18.75c-9.829 0-17.695-7.743-17.695-18.75zm56.577 18.75c-4.589 0-8.347-1.498-10.958-4.148-2.611-2.65-4.097-6.475-4.097-11.171V.778h6.361V22.43c0 5.405 3.796 9.222 8.694 9.222 4.898 0 8.695-3.817 8.695-9.222V.778h6.361V22.43c0 4.696-1.486 8.521-4.098 11.171-2.611 2.65-6.369 4.148-10.958 4.148z" stroke="#fff" stroke-width=".5"/></svg>