<svg width="671" height="93" viewBox="0 0 671 93" fill="none" xmlns="http://www.w3.org/2000/svg"><path fill-rule="evenodd" clip-rule="evenodd" d="M153.66 92C130.5 92 117 79.35 117 62.61h16.72c0 7.8 7.72 14.06 19.94 14.06 12.85 0 18-4.99 18-11.5 0-5.24-3.22-9.5-14.8-11.5l-15.43-2.56c-15.57-2.55-22.51-11.5-22.51-24.28C118.92 12 131.14 0 152.36 0c23.16 0 34.73 12.65 34.73 29.39h-16.72c0-7.67-6.28-14.06-18-14.06-11.72 0-16.72 4.99-16.72 11.5 0 5.11 2.57 8.56 12.22 10.23l14.15 2.55c18.14 3.2 26.37 10.73 26.37 25.56 0 15.33-11.57 26.83-34.73 26.83zm-52.1-1.28H84.83V1.28h16.73v89.44zM0 60.08v30.64h16.72V60.08h5.178L50.81 90.72h21.23L43.118 60.079c14.142-.648 26.342-11.506 26.342-28.74 0-17.89-12.35-30-28.3-30H0v16h40.52c6.43 0 12.22 5.51 12.22 13.81 0 7.58-5.74 12.93-12.22 12.93H0v16z" fill="#306AFF"/><path d="M295.1 56.32v-.5h-22.4v-11.8h38.04v46.36h-11.859l-1.225-9.802-.055-.438h-1.328l-.15.196c-1.623 2.122-3.754 4.005-6.276 5.645l-.002.001c-4.414 2.901-10.593 5.678-19.565 5.678-23.899 0-43.02-18.831-43.02-45.58S246.381.5 270.28.5c23.55 0 36.42 17.183 39.693 31h-16.335c-3.921-8.313-11.203-16-23.358-16-7.812 0-14.668 2.965-19.568 8.29-4.898 5.322-7.812 12.97-7.812 22.29 0 9.32 2.914 16.968 7.812 22.29 4.9 5.325 11.756 8.29 19.568 8.29 8.467 0 14.672-3.423 18.757-7.59 4.062-4.144 6.063-9.062 6.063-12.11v-.64zm75.89 4.182l28.011 29.878h-19.75L350.6 59.818l-.149-.158h-5.836v30.72h-15.64V1.78h40.46c15.575 0 27.66 11.915 27.66 29.58 0 17.007-11.944 27.672-25.763 28.3l-1.085.05.743.792zM344.615 44.8v.5h24.18c6.708 0 12.66-6.017 12.66-13.94 0-8.547-5.937-14.58-12.66-14.58h-24.18V44.8zm274.25 16.14h-.5v29.44h-15.64V1.78h39.82c8.264 0 15.167 2.867 20.005 7.972 4.84 5.107 7.655 12.495 7.655 21.608 0 9.113-2.815 16.501-7.655 21.608-4.838 5.105-11.741 7.972-20.005 7.972h-23.68zm-.5-15.5v.5h23.54c3.705 0 6.888-1.294 9.14-3.798 2.247-2.498 3.52-6.149 3.52-10.782s-1.273-8.284-3.52-10.782c-2.252-2.504-5.435-3.798-9.14-3.798h-23.54v28.66zm-193.465.64c0 9.32 2.914 16.968 7.812 22.29 4.9 5.325 11.756 8.29 19.568 8.29 7.812 0 14.668-2.965 19.568-8.29 4.898-5.322 7.812-12.97 7.812-22.29 0-9.32-2.914-16.968-7.812-22.29-4.9-5.325-11.756-8.29-19.568-8.29-7.812 0-14.668 2.965-19.568 8.29-4.898 5.322-7.812 12.97-7.812 22.29zm-15.64 0C409.26 19.331 428.381.5 452.28.5c23.899 0 43.02 18.831 43.02 45.58s-19.121 45.58-43.02 45.58c-23.899 0-43.02-18.831-43.02-45.58zm137.32 45.58c-11.153 0-20.297-3.641-26.652-10.09-6.356-6.451-9.968-15.757-9.968-27.17V1.78h15.64V54.4c0 13.056 9.164 22.26 20.98 22.26s20.98-9.204 20.98-22.26V1.78h15.64V54.4c0 11.413-3.612 20.719-9.968 27.17-6.356 6.449-15.5 10.09-26.652 10.09z" stroke="#fff"/></svg>