<svg width="176" height="26" viewBox="0 0 176 26" fill="none" xmlns="http://www.w3.org/2000/svg"><path fill-rule="evenodd" clip-rule="evenodd" d="M40.016 24.958c-6.032 0-9.547-3.294-9.547-7.653h4.354c0 2.03 2.01 3.661 5.193 3.661 3.346 0 4.687-1.3 4.687-2.995 0-1.364-.838-2.474-3.854-2.994l-4.018-.667c-4.055-.664-5.862-2.995-5.862-6.323C30.969 4.125 34.15 1 39.677 1c6.031 0 9.044 3.294 9.044 7.654h-4.354c0-1.998-1.635-3.662-4.687-3.662-3.052 0-4.355 1.3-4.355 2.995 0 1.33.67 2.23 3.183 2.664l3.685.664c4.724.833 6.867 2.794 6.867 6.656 0 3.992-3.013 6.987-9.044 6.987zm-13.568-.333H22.09V1.333h4.357v23.292zM0 16.645v7.98h4.354v-7.98h1.349l7.529 7.98h5.528l-7.532-7.98c3.684-.168 6.86-2.996 6.86-7.484 0-4.658-3.216-7.812-7.37-7.812H0v4.167h10.552c1.675 0 3.182 1.434 3.182 3.596 0 1.974-1.494 3.367-3.182 3.367H0v4.167z" fill="#000"/><path d="M77.47 24.698l.028.219h3.804V12.083H70.636v3.834h5.83c-.035.679-.498 1.815-1.467 2.804-1 1.02-2.52 1.862-4.613 1.862-1.934 0-3.616-.732-4.816-2.036-1.201-1.305-1.934-3.2-1.934-5.547 0-2.348.732-4.242 1.934-5.547 1.2-1.304 2.882-2.036 4.816-2.036 3 0 4.796 1.906 5.773 4.021l.067.145h4.97l-.066-.303C80.312 5.53 76.833.75 70.386.75S58.802 5.837 58.802 13s5.137 12.25 11.584 12.25c2.424 0 4.104-.753 5.303-1.54a7.137 7.137 0 001.499-1.277l.283 2.265zm7.82-.031v.25h4.834v-8h.975l7.426 7.92.074.08h6.185l-.394-.421-7.145-7.621c3.568-.408 6.546-3.287 6.546-7.708 0-4.795-3.302-8.084-7.584-8.084H85.291v23.584zm66.965-23.334v-.25h-4.833v14.084c0 3.205-2.231 5.416-5.083 5.416-2.852 0-5.084-2.21-5.084-5.416V1.083h-4.833v14.084c0 3.053.968 5.579 2.705 7.342 1.738 1.763 4.223 2.741 7.212 2.741s5.473-.978 7.211-2.741c1.737-1.763 2.705-4.289 2.705-7.342V1.333zm4.325 23.334v.25h4.833V17.25h5.917c2.243 0 4.145-.78 5.485-2.195 1.339-1.413 2.098-3.437 2.098-5.888 0-2.452-.759-4.476-2.098-5.889-1.34-1.414-3.242-2.195-5.485-2.195h-10.75v23.584zM90.124 5.75h5.916c1.506 0 2.917 1.364 2.917 3.417 0 1.878-1.404 3.25-2.916 3.25h-5.917V5.75zm27.657 14.833c-1.934 0-3.616-.732-4.816-2.036-1.201-1.305-1.934-3.2-1.934-5.547 0-2.348.733-4.242 1.934-5.547 1.2-1.304 2.882-2.036 4.816-2.036 1.934 0 3.616.732 4.816 2.036 1.201 1.305 1.934 3.2 1.934 5.547 0 2.348-.733 4.242-1.934 5.547-1.2 1.304-2.882 2.036-4.816 2.036zm0-19.833c-6.446 0-11.583 5.087-11.583 12.25s5.137 12.25 11.583 12.25c6.447 0 11.584-5.087 11.584-12.25S124.228.75 117.781.75zm43.632 5h5.75c.873 0 1.593.302 2.097.863.507.564.82 1.415.82 2.554 0 1.139-.313 1.99-.82 2.553-.504.561-1.224.863-2.097.863h-5.75V5.75z" stroke="#000" stroke-width=".5"/></svg>